<svg id="architecture-and-city" xmlns="http://www.w3.org/2000/svg" width="100" height="100" viewBox="0 0 100 100">
  <path id="Caminho_110" data-name="Caminho 110" d="M96.774,90.619V12.9H93.548V6.452H90.323V0H61.29V6.452H58.064V12.9H54.839V32.258H47.622L44.913,16.129H35.484V6.452H25.806v9.677H16.129V6.452H6.452v9.677H3.226v74.49A4.832,4.832,0,0,0,0,95.161V100H100V95.161A4.832,4.832,0,0,0,96.774,90.619ZM64.516,3.226H87.1V6.452H64.516ZM61.29,9.677H90.323V12.9H61.29Zm-3.226,6.452H93.548V90.323H69.774L77.3,58.064h9.8V48.387H79.56l1.129-4.839H87.1V33.871H77.419v5.222l-5.7-6.835H58.064ZM61.29,90.323H54.839V80.645H61.29Zm-9.677-12.9v12.9H48.387v-12.9h-12.9v12.9H33.537L23,45.161H77L66.463,90.323H64.516v-12.9Zm-6.452,12.9H38.71V80.645h6.452Zm35.484-50V37.1h3.226v3.226Zm-1.839,11.29h5.065v3.226H78.053ZM29.787,35.484H70.211l5.376,6.452H24.409Zm5.7-3.226H28.278l-2.471,2.964V25.806h9.677Zm-12.9,0H12.9V25.806h9.677ZM12.9,35.484h9.677v3.609l-2.367,2.842H12.9Zm0,9.677h6.786l1.505,6.452H12.9Zm0,9.677h9.043l.634,2.719V61.29H12.9Zm0,9.677h9.677v6.452H12.9Zm0,9.677h9.677v6.452H12.9Zm0,9.677h9.677v6.452H12.9Zm12.9-12.489,4.42,18.941h-4.42Zm3.226-61.7h3.226v6.452H29.032Zm-19.355,0H12.9v6.452H9.677Zm32.506,9.677,2.168,12.9H38.709V22.581H9.677V90.322H6.451V19.355ZM96.774,96.774H3.226V95.161a1.616,1.616,0,0,1,1.613-1.613H95.161a1.616,1.616,0,0,1,1.613,1.613Zm0,0" fill="#7971ea"/>
  <path id="Caminho_111" data-name="Caminho 111" d="M329.677,96H320v9.677h9.677Zm-3.226,6.452h-3.226V99.226h3.226Zm0,0" transform="translate(-255.484 -76.645)" fill="#7971ea"/>
  <path id="Caminho_112" data-name="Caminho 112" d="M393.677,96H384v9.677h9.677Zm-3.226,6.452h-3.226V99.226h3.226Zm0,0" transform="translate(-306.581 -76.645)" fill="#7971ea"/>
  <path id="Caminho_113" data-name="Caminho 113" d="M384,321.677h9.677V312H384Zm3.226-6.452h3.226v3.226h-3.226Zm0,0" transform="translate(-306.581 -249.097)" fill="#7971ea"/>
  <path id="Caminho_114" data-name="Caminho 114" d="M384,393.677h9.677V384H384Zm3.226-6.452h3.226v3.226h-3.226Zm0,0" transform="translate(-306.581 -306.581)" fill="#7971ea"/>
  <path id="Caminho_115" data-name="Caminho 115" d="M195.484,240H160v9.677h35.484Zm-19.355,3.226h3.226v3.226h-3.226Zm-3.226,3.226h-3.226v-3.226H172.9Zm9.677-3.226h3.226v3.226h-3.226Zm-19.355,0h3.226v3.226h-3.226Zm29.032,3.226h-3.226v-3.226h3.226Zm0,0" transform="translate(-127.742 -191.613)" fill="#7971ea"/>
  <path id="Caminho_116" data-name="Caminho 116" d="M195.484,304H160v9.677h35.484Zm-19.355,3.226h3.226v3.226h-3.226Zm-3.226,3.226h-3.226v-3.226H172.9Zm9.677-3.226h3.226v3.226h-3.226Zm-19.355,0h3.226v3.226h-3.226Zm29.032,3.226h-3.226v-3.226h3.226Zm0,0" transform="translate(-127.742 -242.71)" fill="#7971ea"/>
</svg>
